<mxfile host="app.diagrams.net" modified="2023-09-25T14:24:44.503Z" agent="Mozilla/5.0 (Windows NT 10.0; Win64; x64) AppleWebKit/537.36 (KHTML, like Gecko) Chrome/116.0.0.0 Safari/537.36" etag="oac_1ZemLuMMceY9B41P" version="21.7.5" type="github">
  <diagram name="PÃ¡gina-1" id="KKIKMYWYW_vZdRWEw8Tg">
    <mxGraphModel dx="2261" dy="758" grid="1" gridSize="10" guides="1" tooltips="1" connect="1" arrows="1" fold="1" page="1" pageScale="1" pageWidth="827" pageHeight="1169" math="0" shadow="0">
      <root>
        <mxCell id="0" />
        <mxCell id="1" parent="0" />
        <mxCell id="2umZNj4a1MiOhc8skGEE-1" value="Pelicula" style="rounded=0;whiteSpace=wrap;html=1;" parent="1" vertex="1">
          <mxGeometry x="-30" y="80" width="100" height="40" as="geometry" />
        </mxCell>
        <mxCell id="2umZNj4a1MiOhc8skGEE-2" value="Titulo" style="ellipse;whiteSpace=wrap;html=1;" parent="1" vertex="1">
          <mxGeometry x="40" y="10" width="90" height="40" as="geometry" />
        </mxCell>
        <mxCell id="2umZNj4a1MiOhc8skGEE-3" value="&lt;u&gt;Cod_Pelicula&lt;/u&gt;" style="ellipse;whiteSpace=wrap;html=1;" parent="1" vertex="1">
          <mxGeometry x="-70" y="10" width="90" height="40" as="geometry" />
        </mxCell>
        <mxCell id="2umZNj4a1MiOhc8skGEE-4" value="esDeCateg" style="rhombus;whiteSpace=wrap;html=1;" parent="1" vertex="1">
          <mxGeometry x="-160" y="80" width="80" height="80" as="geometry" />
        </mxCell>
        <mxCell id="2umZNj4a1MiOhc8skGEE-5" value="Categoria" style="rounded=0;whiteSpace=wrap;html=1;" parent="1" vertex="1">
          <mxGeometry x="-160" y="190" width="100" height="40" as="geometry" />
        </mxCell>
        <mxCell id="2umZNj4a1MiOhc8skGEE-6" value="tipo_categoria" style="ellipse;whiteSpace=wrap;html=1;" parent="1" vertex="1">
          <mxGeometry x="-170" y="270" width="90" height="40" as="geometry" />
        </mxCell>
        <mxCell id="2umZNj4a1MiOhc8skGEE-7" value="&lt;u&gt;Cod_categ&lt;/u&gt;" style="ellipse;whiteSpace=wrap;html=1;" parent="1" vertex="1">
          <mxGeometry x="-60" y="270" width="90" height="40" as="geometry" />
        </mxCell>
        <mxCell id="2umZNj4a1MiOhc8skGEE-9" value="actuan" style="rhombus;whiteSpace=wrap;html=1;" parent="1" vertex="1">
          <mxGeometry x="250" y="60" width="80" height="80" as="geometry" />
        </mxCell>
        <mxCell id="2umZNj4a1MiOhc8skGEE-11" value="esDeFormato" style="rhombus;whiteSpace=wrap;html=1;" parent="1" vertex="1">
          <mxGeometry x="20" y="330" width="90" height="80" as="geometry" />
        </mxCell>
        <mxCell id="2umZNj4a1MiOhc8skGEE-12" value="Formato" style="rounded=0;whiteSpace=wrap;html=1;" parent="1" vertex="1">
          <mxGeometry x="90" y="420" width="100" height="40" as="geometry" />
        </mxCell>
        <mxCell id="2umZNj4a1MiOhc8skGEE-13" value="&lt;u&gt;Cod_formato&lt;/u&gt;" style="ellipse;whiteSpace=wrap;html=1;" parent="1" vertex="1">
          <mxGeometry x="220" y="380" width="90" height="40" as="geometry" />
        </mxCell>
        <mxCell id="2umZNj4a1MiOhc8skGEE-14" value="tipo_formato" style="ellipse;whiteSpace=wrap;html=1;" parent="1" vertex="1">
          <mxGeometry x="220" y="430" width="90" height="40" as="geometry" />
        </mxCell>
        <mxCell id="2umZNj4a1MiOhc8skGEE-15" value="&lt;u&gt;Cod_copia&lt;/u&gt;" style="ellipse;whiteSpace=wrap;html=1;" parent="1" vertex="1">
          <mxGeometry x="150" y="330" width="90" height="40" as="geometry" />
        </mxCell>
        <mxCell id="2umZNj4a1MiOhc8skGEE-16" value="Alquila" style="rhombus;whiteSpace=wrap;html=1;" parent="1" vertex="1">
          <mxGeometry x="300" y="260" width="80" height="80" as="geometry" />
        </mxCell>
        <mxCell id="2umZNj4a1MiOhc8skGEE-17" value="Socio" style="rounded=0;whiteSpace=wrap;html=1;" parent="1" vertex="1">
          <mxGeometry x="470" y="280" width="100" height="40" as="geometry" />
        </mxCell>
        <mxCell id="2umZNj4a1MiOhc8skGEE-18" value="Reparto" style="rounded=0;whiteSpace=wrap;html=1;" parent="1" vertex="1">
          <mxGeometry x="470" y="80" width="100" height="40" as="geometry" />
        </mxCell>
        <mxCell id="2umZNj4a1MiOhc8skGEE-19" value="&lt;u&gt;Cod_actor&lt;/u&gt;" style="ellipse;whiteSpace=wrap;html=1;" parent="1" vertex="1">
          <mxGeometry x="370" y="10" width="90" height="40" as="geometry" />
        </mxCell>
        <mxCell id="2umZNj4a1MiOhc8skGEE-20" value="nombre" style="ellipse;whiteSpace=wrap;html=1;" parent="1" vertex="1">
          <mxGeometry x="480" y="10" width="90" height="40" as="geometry" />
        </mxCell>
        <mxCell id="2umZNj4a1MiOhc8skGEE-21" value="apellido" style="ellipse;whiteSpace=wrap;html=1;" parent="1" vertex="1">
          <mxGeometry x="600" y="40" width="90" height="40" as="geometry" />
        </mxCell>
        <mxCell id="2umZNj4a1MiOhc8skGEE-22" value="Fec_nacimiento" style="ellipse;whiteSpace=wrap;html=1;" parent="1" vertex="1">
          <mxGeometry x="590" y="120" width="90" height="40" as="geometry" />
        </mxCell>
        <mxCell id="2umZNj4a1MiOhc8skGEE-23" value="nombre" style="ellipse;whiteSpace=wrap;html=1;" parent="1" vertex="1">
          <mxGeometry x="400" y="210" width="90" height="40" as="geometry" />
        </mxCell>
        <mxCell id="2umZNj4a1MiOhc8skGEE-24" value="apelido" style="ellipse;whiteSpace=wrap;html=1;" parent="1" vertex="1">
          <mxGeometry x="530" y="200" width="90" height="40" as="geometry" />
        </mxCell>
        <mxCell id="2umZNj4a1MiOhc8skGEE-26" value="&lt;u&gt;nro_socio&lt;/u&gt;" style="ellipse;whiteSpace=wrap;html=1;" parent="1" vertex="1">
          <mxGeometry x="590" y="350" width="90" height="40" as="geometry" />
        </mxCell>
        <mxCell id="2umZNj4a1MiOhc8skGEE-27" value="direccion" style="ellipse;whiteSpace=wrap;html=1;" parent="1" vertex="1">
          <mxGeometry x="420" y="340" width="90" height="40" as="geometry" />
        </mxCell>
        <mxCell id="2umZNj4a1MiOhc8skGEE-28" value="calle" style="ellipse;whiteSpace=wrap;html=1;" parent="1" vertex="1">
          <mxGeometry x="350" y="390" width="90" height="40" as="geometry" />
        </mxCell>
        <mxCell id="2umZNj4a1MiOhc8skGEE-29" value="altura" style="ellipse;whiteSpace=wrap;html=1;" parent="1" vertex="1">
          <mxGeometry x="440" y="420" width="90" height="40" as="geometry" />
        </mxCell>
        <mxCell id="2umZNj4a1MiOhc8skGEE-30" value="CP" style="ellipse;whiteSpace=wrap;html=1;" parent="1" vertex="1">
          <mxGeometry x="520" y="390" width="90" height="40" as="geometry" />
        </mxCell>
        <mxCell id="2umZNj4a1MiOhc8skGEE-34" value="" style="endArrow=none;html=1;rounded=0;entryX=1;entryY=0;entryDx=0;entryDy=0;exitX=0.433;exitY=1.05;exitDx=0;exitDy=0;exitPerimeter=0;" parent="1" source="2umZNj4a1MiOhc8skGEE-2" target="2umZNj4a1MiOhc8skGEE-1" edge="1">
          <mxGeometry width="50" height="50" relative="1" as="geometry">
            <mxPoint x="260" y="260" as="sourcePoint" />
            <mxPoint x="310" y="210" as="targetPoint" />
          </mxGeometry>
        </mxCell>
        <mxCell id="2umZNj4a1MiOhc8skGEE-36" value="" style="endArrow=none;html=1;rounded=0;entryX=0.13;entryY=0.075;entryDx=0;entryDy=0;exitX=0.589;exitY=1.025;exitDx=0;exitDy=0;exitPerimeter=0;entryPerimeter=0;" parent="1" source="2umZNj4a1MiOhc8skGEE-3" target="2umZNj4a1MiOhc8skGEE-1" edge="1">
          <mxGeometry width="50" height="50" relative="1" as="geometry">
            <mxPoint x="89" y="62" as="sourcePoint" />
            <mxPoint x="80" y="90" as="targetPoint" />
          </mxGeometry>
        </mxCell>
        <mxCell id="2umZNj4a1MiOhc8skGEE-37" value="" style="endArrow=none;html=1;rounded=0;entryX=1;entryY=0.5;entryDx=0;entryDy=0;exitX=0;exitY=0.5;exitDx=0;exitDy=0;" parent="1" source="2umZNj4a1MiOhc8skGEE-1" target="2umZNj4a1MiOhc8skGEE-4" edge="1">
          <mxGeometry width="50" height="50" relative="1" as="geometry">
            <mxPoint x="99" y="72" as="sourcePoint" />
            <mxPoint x="90" y="100" as="targetPoint" />
          </mxGeometry>
        </mxCell>
        <mxCell id="2umZNj4a1MiOhc8skGEE-38" value="" style="endArrow=none;html=1;rounded=0;entryX=0.39;entryY=-0.1;entryDx=0;entryDy=0;exitX=0.5;exitY=1;exitDx=0;exitDy=0;entryPerimeter=0;" parent="1" source="2umZNj4a1MiOhc8skGEE-4" target="2umZNj4a1MiOhc8skGEE-5" edge="1">
          <mxGeometry width="50" height="50" relative="1" as="geometry">
            <mxPoint x="109" y="82" as="sourcePoint" />
            <mxPoint x="100" y="110" as="targetPoint" />
          </mxGeometry>
        </mxCell>
        <mxCell id="2umZNj4a1MiOhc8skGEE-39" value="" style="endArrow=none;html=1;rounded=0;entryX=0.5;entryY=0;entryDx=0;entryDy=0;exitX=0.41;exitY=1.125;exitDx=0;exitDy=0;exitPerimeter=0;" parent="1" source="2umZNj4a1MiOhc8skGEE-5" target="2umZNj4a1MiOhc8skGEE-6" edge="1">
          <mxGeometry width="50" height="50" relative="1" as="geometry">
            <mxPoint x="119" y="92" as="sourcePoint" />
            <mxPoint x="110" y="120" as="targetPoint" />
          </mxGeometry>
        </mxCell>
        <mxCell id="2umZNj4a1MiOhc8skGEE-40" value="" style="endArrow=none;html=1;rounded=0;entryX=0.5;entryY=0;entryDx=0;entryDy=0;exitX=1;exitY=1;exitDx=0;exitDy=0;" parent="1" source="2umZNj4a1MiOhc8skGEE-5" target="2umZNj4a1MiOhc8skGEE-7" edge="1">
          <mxGeometry width="50" height="50" relative="1" as="geometry">
            <mxPoint x="129" y="102" as="sourcePoint" />
            <mxPoint x="120" y="130" as="targetPoint" />
          </mxGeometry>
        </mxCell>
        <mxCell id="2umZNj4a1MiOhc8skGEE-41" value="" style="endArrow=none;html=1;rounded=0;entryX=0.5;entryY=0;entryDx=0;entryDy=0;exitX=1;exitY=1;exitDx=0;exitDy=0;" parent="1" source="2umZNj4a1MiOhc8skGEE-1" target="EXpxNUru8JFY5_ftUQ4x-14" edge="1">
          <mxGeometry width="50" height="50" relative="1" as="geometry">
            <mxPoint x="30" y="150" as="sourcePoint" />
            <mxPoint x="130" y="140" as="targetPoint" />
          </mxGeometry>
        </mxCell>
        <mxCell id="2umZNj4a1MiOhc8skGEE-42" value="" style="endArrow=none;html=1;rounded=0;entryX=1;entryY=0.5;entryDx=0;entryDy=0;exitX=0;exitY=0.5;exitDx=0;exitDy=0;" parent="1" source="2umZNj4a1MiOhc8skGEE-9" target="2umZNj4a1MiOhc8skGEE-1" edge="1">
          <mxGeometry width="50" height="50" relative="1" as="geometry">
            <mxPoint x="149" y="122" as="sourcePoint" />
            <mxPoint x="140" y="150" as="targetPoint" />
          </mxGeometry>
        </mxCell>
        <mxCell id="2umZNj4a1MiOhc8skGEE-43" value="" style="endArrow=none;html=1;rounded=0;entryX=0.5;entryY=0;entryDx=0;entryDy=0;exitX=0.5;exitY=1;exitDx=0;exitDy=0;" parent="1" source="EXpxNUru8JFY5_ftUQ4x-15" edge="1">
          <mxGeometry width="50" height="50" relative="1" as="geometry">
            <mxPoint x="159" y="132" as="sourcePoint" />
            <mxPoint x="140" y="270" as="targetPoint" />
          </mxGeometry>
        </mxCell>
        <mxCell id="2umZNj4a1MiOhc8skGEE-44" value="" style="endArrow=none;html=1;rounded=0;entryX=0.5;entryY=0;entryDx=0;entryDy=0;exitX=0;exitY=1;exitDx=0;exitDy=0;" parent="1" target="2umZNj4a1MiOhc8skGEE-11" edge="1">
          <mxGeometry width="50" height="50" relative="1" as="geometry">
            <mxPoint x="90" y="310" as="sourcePoint" />
            <mxPoint x="160" y="170" as="targetPoint" />
          </mxGeometry>
        </mxCell>
        <mxCell id="2umZNj4a1MiOhc8skGEE-45" value="" style="endArrow=none;html=1;rounded=0;entryX=0.5;entryY=1;entryDx=0;entryDy=0;exitX=0;exitY=0.5;exitDx=0;exitDy=0;" parent="1" source="2umZNj4a1MiOhc8skGEE-12" target="2umZNj4a1MiOhc8skGEE-11" edge="1">
          <mxGeometry width="50" height="50" relative="1" as="geometry">
            <mxPoint x="179" y="152" as="sourcePoint" />
            <mxPoint x="170" y="180" as="targetPoint" />
          </mxGeometry>
        </mxCell>
        <mxCell id="2umZNj4a1MiOhc8skGEE-46" value="" style="endArrow=none;html=1;rounded=0;entryX=0;entryY=0.5;entryDx=0;entryDy=0;exitX=1;exitY=0.5;exitDx=0;exitDy=0;" parent="1" source="2umZNj4a1MiOhc8skGEE-12" target="2umZNj4a1MiOhc8skGEE-13" edge="1">
          <mxGeometry width="50" height="50" relative="1" as="geometry">
            <mxPoint x="189" y="162" as="sourcePoint" />
            <mxPoint x="180" y="190" as="targetPoint" />
          </mxGeometry>
        </mxCell>
        <mxCell id="2umZNj4a1MiOhc8skGEE-47" value="" style="endArrow=none;html=1;rounded=0;entryX=0;entryY=0.5;entryDx=0;entryDy=0;exitX=1;exitY=0.75;exitDx=0;exitDy=0;" parent="1" source="2umZNj4a1MiOhc8skGEE-12" target="2umZNj4a1MiOhc8skGEE-14" edge="1">
          <mxGeometry width="50" height="50" relative="1" as="geometry">
            <mxPoint x="199" y="172" as="sourcePoint" />
            <mxPoint x="190" y="200" as="targetPoint" />
          </mxGeometry>
        </mxCell>
        <mxCell id="2umZNj4a1MiOhc8skGEE-48" value="" style="endArrow=none;html=1;rounded=0;entryX=0.378;entryY=0;entryDx=0;entryDy=0;exitX=0.58;exitY=1.05;exitDx=0;exitDy=0;exitPerimeter=0;entryPerimeter=0;" parent="1" target="2umZNj4a1MiOhc8skGEE-15" edge="1">
          <mxGeometry width="50" height="50" relative="1" as="geometry">
            <mxPoint x="148" y="312" as="sourcePoint" />
            <mxPoint x="200" y="210" as="targetPoint" />
          </mxGeometry>
        </mxCell>
        <mxCell id="2umZNj4a1MiOhc8skGEE-49" value="" style="endArrow=none;html=1;rounded=0;entryX=0;entryY=0.5;entryDx=0;entryDy=0;exitX=1;exitY=0.75;exitDx=0;exitDy=0;" parent="1" target="2umZNj4a1MiOhc8skGEE-16" edge="1">
          <mxGeometry width="50" height="50" relative="1" as="geometry">
            <mxPoint x="190" y="300" as="sourcePoint" />
            <mxPoint x="210" y="220" as="targetPoint" />
          </mxGeometry>
        </mxCell>
        <mxCell id="2umZNj4a1MiOhc8skGEE-50" value="" style="endArrow=none;html=1;rounded=0;entryX=1;entryY=0.5;entryDx=0;entryDy=0;exitX=0;exitY=0.5;exitDx=0;exitDy=0;" parent="1" source="2umZNj4a1MiOhc8skGEE-18" target="2umZNj4a1MiOhc8skGEE-9" edge="1">
          <mxGeometry width="50" height="50" relative="1" as="geometry">
            <mxPoint x="229" y="202" as="sourcePoint" />
            <mxPoint x="220" y="230" as="targetPoint" />
          </mxGeometry>
        </mxCell>
        <mxCell id="2umZNj4a1MiOhc8skGEE-51" value="" style="endArrow=none;html=1;rounded=0;entryX=1;entryY=1;entryDx=0;entryDy=0;exitX=0;exitY=0;exitDx=0;exitDy=0;" parent="1" source="2umZNj4a1MiOhc8skGEE-18" target="2umZNj4a1MiOhc8skGEE-19" edge="1">
          <mxGeometry width="50" height="50" relative="1" as="geometry">
            <mxPoint x="239" y="212" as="sourcePoint" />
            <mxPoint x="230" y="240" as="targetPoint" />
          </mxGeometry>
        </mxCell>
        <mxCell id="2umZNj4a1MiOhc8skGEE-52" value="" style="endArrow=none;html=1;rounded=0;entryX=0.5;entryY=0;entryDx=0;entryDy=0;exitX=0.5;exitY=1;exitDx=0;exitDy=0;" parent="1" source="2umZNj4a1MiOhc8skGEE-20" target="2umZNj4a1MiOhc8skGEE-18" edge="1">
          <mxGeometry width="50" height="50" relative="1" as="geometry">
            <mxPoint x="249" y="222" as="sourcePoint" />
            <mxPoint x="240" y="250" as="targetPoint" />
          </mxGeometry>
        </mxCell>
        <mxCell id="2umZNj4a1MiOhc8skGEE-53" value="" style="endArrow=none;html=1;rounded=0;entryX=1;entryY=0.25;entryDx=0;entryDy=0;exitX=0;exitY=1;exitDx=0;exitDy=0;" parent="1" source="2umZNj4a1MiOhc8skGEE-21" target="2umZNj4a1MiOhc8skGEE-18" edge="1">
          <mxGeometry width="50" height="50" relative="1" as="geometry">
            <mxPoint x="259" y="232" as="sourcePoint" />
            <mxPoint x="250" y="260" as="targetPoint" />
          </mxGeometry>
        </mxCell>
        <mxCell id="2umZNj4a1MiOhc8skGEE-54" value="" style="endArrow=none;html=1;rounded=0;entryX=0.5;entryY=1;entryDx=0;entryDy=0;exitX=0;exitY=0.5;exitDx=0;exitDy=0;" parent="1" source="2umZNj4a1MiOhc8skGEE-22" target="2umZNj4a1MiOhc8skGEE-18" edge="1">
          <mxGeometry width="50" height="50" relative="1" as="geometry">
            <mxPoint x="269" y="242" as="sourcePoint" />
            <mxPoint x="260" y="270" as="targetPoint" />
          </mxGeometry>
        </mxCell>
        <mxCell id="2umZNj4a1MiOhc8skGEE-55" value="" style="endArrow=none;html=1;rounded=0;entryX=1;entryY=0.5;entryDx=0;entryDy=0;" parent="1" target="2umZNj4a1MiOhc8skGEE-16" edge="1">
          <mxGeometry width="50" height="50" relative="1" as="geometry">
            <mxPoint x="470" y="300" as="sourcePoint" />
            <mxPoint x="270" y="280" as="targetPoint" />
          </mxGeometry>
        </mxCell>
        <mxCell id="2umZNj4a1MiOhc8skGEE-56" value="" style="endArrow=none;html=1;rounded=0;entryX=0;entryY=0;entryDx=0;entryDy=0;exitX=0.678;exitY=0.95;exitDx=0;exitDy=0;exitPerimeter=0;" parent="1" source="2umZNj4a1MiOhc8skGEE-23" target="2umZNj4a1MiOhc8skGEE-17" edge="1">
          <mxGeometry width="50" height="50" relative="1" as="geometry">
            <mxPoint x="289" y="262" as="sourcePoint" />
            <mxPoint x="280" y="290" as="targetPoint" />
          </mxGeometry>
        </mxCell>
        <mxCell id="2umZNj4a1MiOhc8skGEE-57" value="" style="endArrow=none;html=1;rounded=0;entryX=0.75;entryY=0;entryDx=0;entryDy=0;exitX=0.5;exitY=1;exitDx=0;exitDy=0;" parent="1" source="2umZNj4a1MiOhc8skGEE-24" target="2umZNj4a1MiOhc8skGEE-17" edge="1">
          <mxGeometry width="50" height="50" relative="1" as="geometry">
            <mxPoint x="299" y="272" as="sourcePoint" />
            <mxPoint x="290" y="300" as="targetPoint" />
          </mxGeometry>
        </mxCell>
        <mxCell id="2umZNj4a1MiOhc8skGEE-58" value="" style="endArrow=none;html=1;rounded=0;entryX=1;entryY=0.5;entryDx=0;entryDy=0;exitX=0;exitY=0.5;exitDx=0;exitDy=0;" parent="1" target="2umZNj4a1MiOhc8skGEE-17" edge="1">
          <mxGeometry width="50" height="50" relative="1" as="geometry">
            <mxPoint x="600" y="290" as="sourcePoint" />
            <mxPoint x="300" y="310" as="targetPoint" />
          </mxGeometry>
        </mxCell>
        <mxCell id="2umZNj4a1MiOhc8skGEE-59" value="" style="endArrow=none;html=1;rounded=0;entryX=0.75;entryY=1;entryDx=0;entryDy=0;exitX=0.222;exitY=0;exitDx=0;exitDy=0;exitPerimeter=0;" parent="1" source="2umZNj4a1MiOhc8skGEE-26" target="2umZNj4a1MiOhc8skGEE-17" edge="1">
          <mxGeometry width="50" height="50" relative="1" as="geometry">
            <mxPoint x="319" y="292" as="sourcePoint" />
            <mxPoint x="310" y="320" as="targetPoint" />
          </mxGeometry>
        </mxCell>
        <mxCell id="2umZNj4a1MiOhc8skGEE-60" value="" style="endArrow=none;html=1;rounded=0;entryX=0.42;entryY=1;entryDx=0;entryDy=0;exitX=0.5;exitY=0;exitDx=0;exitDy=0;entryPerimeter=0;" parent="1" source="2umZNj4a1MiOhc8skGEE-27" target="2umZNj4a1MiOhc8skGEE-17" edge="1">
          <mxGeometry width="50" height="50" relative="1" as="geometry">
            <mxPoint x="329" y="302" as="sourcePoint" />
            <mxPoint x="320" y="330" as="targetPoint" />
          </mxGeometry>
        </mxCell>
        <mxCell id="2umZNj4a1MiOhc8skGEE-61" value="" style="endArrow=none;html=1;rounded=0;exitX=0.933;exitY=0.775;exitDx=0;exitDy=0;exitPerimeter=0;" parent="1" source="2umZNj4a1MiOhc8skGEE-27" target="2umZNj4a1MiOhc8skGEE-30" edge="1">
          <mxGeometry width="50" height="50" relative="1" as="geometry">
            <mxPoint x="339" y="312" as="sourcePoint" />
            <mxPoint x="330" y="340" as="targetPoint" />
          </mxGeometry>
        </mxCell>
        <mxCell id="2umZNj4a1MiOhc8skGEE-62" value="" style="endArrow=none;html=1;rounded=0;entryX=0.344;entryY=-0.075;entryDx=0;entryDy=0;exitX=0.022;exitY=0.675;exitDx=0;exitDy=0;exitPerimeter=0;entryPerimeter=0;" parent="1" source="2umZNj4a1MiOhc8skGEE-27" target="2umZNj4a1MiOhc8skGEE-28" edge="1">
          <mxGeometry width="50" height="50" relative="1" as="geometry">
            <mxPoint x="349" y="322" as="sourcePoint" />
            <mxPoint x="340" y="350" as="targetPoint" />
          </mxGeometry>
        </mxCell>
        <mxCell id="2umZNj4a1MiOhc8skGEE-63" value="" style="endArrow=none;html=1;rounded=0;entryX=0.5;entryY=0;entryDx=0;entryDy=0;exitX=0.611;exitY=1.075;exitDx=0;exitDy=0;exitPerimeter=0;" parent="1" source="2umZNj4a1MiOhc8skGEE-27" target="2umZNj4a1MiOhc8skGEE-29" edge="1">
          <mxGeometry width="50" height="50" relative="1" as="geometry">
            <mxPoint x="359" y="332" as="sourcePoint" />
            <mxPoint x="350" y="360" as="targetPoint" />
          </mxGeometry>
        </mxCell>
        <mxCell id="2umZNj4a1MiOhc8skGEE-64" value="N:N" style="text;html=1;strokeColor=none;fillColor=none;align=center;verticalAlign=middle;whiteSpace=wrap;rounded=0;" parent="1" vertex="1">
          <mxGeometry x="260" y="30" width="60" height="30" as="geometry" />
        </mxCell>
        <mxCell id="2umZNj4a1MiOhc8skGEE-65" value="1:N" style="text;html=1;strokeColor=none;fillColor=none;align=center;verticalAlign=middle;whiteSpace=wrap;rounded=0;" parent="1" vertex="1">
          <mxGeometry x="165" y="175" width="60" height="30" as="geometry" />
        </mxCell>
        <mxCell id="2umZNj4a1MiOhc8skGEE-66" value="1:N" style="text;html=1;strokeColor=none;fillColor=none;align=center;verticalAlign=middle;whiteSpace=wrap;rounded=0;" parent="1" vertex="1">
          <mxGeometry x="-140" y="60" width="60" height="30" as="geometry" />
        </mxCell>
        <mxCell id="2umZNj4a1MiOhc8skGEE-67" value="N:1" style="text;html=1;strokeColor=none;fillColor=none;align=center;verticalAlign=middle;whiteSpace=wrap;rounded=0;" parent="1" vertex="1">
          <mxGeometry x="-30" y="355" width="60" height="30" as="geometry" />
        </mxCell>
        <mxCell id="2umZNj4a1MiOhc8skGEE-68" value="N:N" style="text;html=1;strokeColor=none;fillColor=none;align=center;verticalAlign=middle;whiteSpace=wrap;rounded=0;" parent="1" vertex="1">
          <mxGeometry x="310" y="240" width="60" height="30" as="geometry" />
        </mxCell>
        <mxCell id="EXpxNUru8JFY5_ftUQ4x-1" value="tieneReg" style="rhombus;whiteSpace=wrap;html=1;" vertex="1" parent="1">
          <mxGeometry x="600" y="260" width="60" height="60" as="geometry" />
        </mxCell>
        <mxCell id="EXpxNUru8JFY5_ftUQ4x-3" value="Telefono" style="rounded=0;whiteSpace=wrap;html=1;" vertex="1" parent="1">
          <mxGeometry x="680" y="235" width="100" height="40" as="geometry" />
        </mxCell>
        <mxCell id="EXpxNUru8JFY5_ftUQ4x-4" value="nroTelefono" style="ellipse;whiteSpace=wrap;html=1;" vertex="1" parent="1">
          <mxGeometry x="730" y="160" width="90" height="40" as="geometry" />
        </mxCell>
        <mxCell id="EXpxNUru8JFY5_ftUQ4x-5" value="" style="endArrow=none;html=1;rounded=0;entryX=0.5;entryY=1;entryDx=0;entryDy=0;exitX=0.75;exitY=0;exitDx=0;exitDy=0;" edge="1" parent="1" source="EXpxNUru8JFY5_ftUQ4x-3" target="EXpxNUru8JFY5_ftUQ4x-4">
          <mxGeometry width="50" height="50" relative="1" as="geometry">
            <mxPoint x="480" y="310" as="sourcePoint" />
            <mxPoint x="390" y="310" as="targetPoint" />
          </mxGeometry>
        </mxCell>
        <mxCell id="EXpxNUru8JFY5_ftUQ4x-6" value="" style="endArrow=none;html=1;rounded=0;entryX=1;entryY=0.5;entryDx=0;entryDy=0;exitX=0.43;exitY=1;exitDx=0;exitDy=0;exitPerimeter=0;" edge="1" parent="1" source="EXpxNUru8JFY5_ftUQ4x-3" target="EXpxNUru8JFY5_ftUQ4x-1">
          <mxGeometry width="50" height="50" relative="1" as="geometry">
            <mxPoint x="490" y="320" as="sourcePoint" />
            <mxPoint x="400" y="320" as="targetPoint" />
          </mxGeometry>
        </mxCell>
        <mxCell id="EXpxNUru8JFY5_ftUQ4x-7" value="1:N" style="text;html=1;strokeColor=none;fillColor=none;align=center;verticalAlign=middle;whiteSpace=wrap;rounded=0;" vertex="1" parent="1">
          <mxGeometry x="600" y="245" width="60" height="30" as="geometry" />
        </mxCell>
        <mxCell id="EXpxNUru8JFY5_ftUQ4x-8" value="id_Socio" style="ellipse;whiteSpace=wrap;html=1;" vertex="1" parent="1">
          <mxGeometry x="630" y="170" width="90" height="40" as="geometry" />
        </mxCell>
        <mxCell id="EXpxNUru8JFY5_ftUQ4x-9" value="" style="endArrow=none;html=1;rounded=0;entryX=0.789;entryY=0.975;entryDx=0;entryDy=0;exitX=0.37;exitY=0.05;exitDx=0;exitDy=0;entryPerimeter=0;exitPerimeter=0;" edge="1" parent="1" source="EXpxNUru8JFY5_ftUQ4x-3" target="EXpxNUru8JFY5_ftUQ4x-8">
          <mxGeometry width="50" height="50" relative="1" as="geometry">
            <mxPoint x="765" y="245" as="sourcePoint" />
            <mxPoint x="785" y="210" as="targetPoint" />
          </mxGeometry>
        </mxCell>
        <mxCell id="EXpxNUru8JFY5_ftUQ4x-14" value="" style="rhombus;whiteSpace=wrap;html=1;" vertex="1" parent="1">
          <mxGeometry x="100" y="150" width="80" height="80" as="geometry" />
        </mxCell>
        <mxCell id="EXpxNUru8JFY5_ftUQ4x-15" value="Tiene" style="rhombus;whiteSpace=wrap;html=1;" vertex="1" parent="1">
          <mxGeometry x="107.5" y="155" width="65" height="70" as="geometry" />
        </mxCell>
        <mxCell id="EXpxNUru8JFY5_ftUQ4x-16" value="" style="rounded=0;whiteSpace=wrap;html=1;" vertex="1" parent="1">
          <mxGeometry x="80" y="265" width="110" height="50" as="geometry" />
        </mxCell>
        <mxCell id="EXpxNUru8JFY5_ftUQ4x-17" value="Copia" style="rounded=0;whiteSpace=wrap;html=1;" vertex="1" parent="1">
          <mxGeometry x="85" y="270" width="100" height="40" as="geometry" />
        </mxCell>
      </root>
    </mxGraphModel>
  </diagram>
</mxfile>
